<?xml version="1.0" encoding="UTF-8"?>
<svg xmlns="http://www.w3.org/2000/svg" viewBox="0 0 1280 640" width="1280" height="640">
  <defs>
    <linearGradient id="bgGrad" x1="0" y1="0" x2="1" y2="1">
      <stop offset="0%" stop-color="#1d1d21"/>
      <stop offset="100%" stop-color="#0f1014"/>
    </linearGradient>
    <linearGradient id="gearGrad" x1="0.2" y1="0.15" x2="0.8" y2="0.85">
      <stop offset="0%" stop-color="#95caed"/>
      <stop offset="100%" stop-color="#72addd"/>
    </linearGradient>
    <mask id="mouthMask">
      <rect width="1280" height="640" fill="white"/>
      <path d="M285 290 L435 208 A180 180 0 0 1 435 372 Z" fill="black"/>
    </mask>
  </defs>

  <rect width="1280" height="640" fill="url(#bgGrad)"/>

  <g mask="url(#mouthMask)">
    <circle cx="250" cy="290" r="118" fill="url(#gearGrad)"/>
    <rect x="235" y="104" width="30" height="52" rx="3" fill="#95caed"/>
    <rect x="235" y="104" width="30" height="52" rx="3" fill="#95caed" transform="rotate(30 250 290)"/>
    <rect x="235" y="104" width="30" height="52" rx="3" fill="#95caed" transform="rotate(60 250 290)"/>
    <rect x="235" y="104" width="30" height="52" rx="3" fill="#95caed" transform="rotate(90 250 290)"/>
    <rect x="235" y="104" width="30" height="52" rx="3" fill="#95caed" transform="rotate(120 250 290)"/>
    <rect x="235" y="104" width="30" height="52" rx="3" fill="#95caed" transform="rotate(150 250 290)"/>
    <rect x="235" y="104" width="30" height="52" rx="3" fill="#95caed" transform="rotate(180 250 290)"/>
    <rect x="235" y="104" width="30" height="52" rx="3" fill="#95caed" transform="rotate(210 250 290)"/>
    <rect x="235" y="104" width="30" height="52" rx="3" fill="#95caed" transform="rotate(240 250 290)"/>
    <rect x="235" y="104" width="30" height="52" rx="3" fill="#95caed" transform="rotate(270 250 290)"/>
    <rect x="235" y="104" width="30" height="52" rx="3" fill="#95caed" transform="rotate(300 250 290)"/>
    <rect x="235" y="104" width="30" height="52" rx="3" fill="#95caed" transform="rotate(330 250 290)"/>
  </g>

  <path d="M220 168 C285 134 354 145 385 183 C340 168 291 174 255 205 C239 219 229 238 227 262 C223 301 239 336 275 368 C303 394 339 407 379 404 C350 431 308 446 261 442 C209 438 166 416 137 377 C109 337 100 288 113 241 C127 198 166 169 220 168 Z"
        fill="none" stroke="#698fad" stroke-width="7" stroke-linecap="round" opacity="0.72"/>
  <circle cx="202" cy="249" r="26" fill="#24104d"/>

  <polygon points="456,248 518,279 456,310 394,279" fill="#79afe8"/>
  <polygon points="394,279 456,310 456,372 394,341" fill="#4e7fd0"/>
  <polygon points="456,310 518,279 518,341 456,372" fill="#325ead"/>

  <text x="855" y="250" text-anchor="middle"
        font-family="'Segoe UI', Arial, sans-serif"
        font-size="90" font-weight="400" fill="#f4efc6">LUNA2D</text>
  <text x="855" y="320" text-anchor="middle"
        font-family="'Segoe UI', Arial, sans-serif"
        font-size="32" fill="#ddd2cf">2D Game Engine</text>
  <text x="855" y="390" text-anchor="middle"
        font-family="'Segoe UI', Arial, sans-serif"
        font-size="24" fill="#9ba3b0">Rust · LuaJIT · wgpu</text>
</svg>
