<?xml version="1.0" encoding="UTF-8"?>
<svg xmlns="http://www.w3.org/2000/svg" viewBox="0 0 256 256" width="256" height="256">
  <defs>
    <linearGradient id="gearGrad" x1="0.2" y1="0.15" x2="0.8" y2="0.85">
      <stop offset="0%" stop-color="#8fc5ea"/>
      <stop offset="100%" stop-color="#6faadb"/>
    </linearGradient>
    <mask id="mouthMask">
      <rect width="256" height="256" fill="white"/>
      <path d="M128 128 L206 86 A92 92 0 0 1 206 170 Z" fill="black"/>
    </mask>
  </defs>

  <g mask="url(#mouthMask)">
    <circle cx="118" cy="128" r="61" fill="url(#gearGrad)"/>
    <rect x="110" y="31" width="16" height="30" rx="2" fill="#8fc5ea"/>
    <rect x="110" y="31" width="16" height="30" rx="2" fill="#8fc5ea" transform="rotate(30 118 128)"/>
    <rect x="110" y="31" width="16" height="30" rx="2" fill="#8fc5ea" transform="rotate(60 118 128)"/>
    <rect x="110" y="31" width="16" height="30" rx="2" fill="#8fc5ea" transform="rotate(90 118 128)"/>
    <rect x="110" y="31" width="16" height="30" rx="2" fill="#8fc5ea" transform="rotate(120 118 128)"/>
    <rect x="110" y="31" width="16" height="30" rx="2" fill="#8fc5ea" transform="rotate(150 118 128)"/>
    <rect x="110" y="31" width="16" height="30" rx="2" fill="#8fc5ea" transform="rotate(180 118 128)"/>
    <rect x="110" y="31" width="16" height="30" rx="2" fill="#8fc5ea" transform="rotate(210 118 128)"/>
    <rect x="110" y="31" width="16" height="30" rx="2" fill="#8fc5ea" transform="rotate(240 118 128)"/>
    <rect x="110" y="31" width="16" height="30" rx="2" fill="#8fc5ea" transform="rotate(270 118 128)"/>
    <rect x="110" y="31" width="16" height="30" rx="2" fill="#8fc5ea" transform="rotate(300 118 128)"/>
    <rect x="110" y="31" width="16" height="30" rx="2" fill="#8fc5ea" transform="rotate(330 118 128)"/>
  </g>

  <path d="M102 66 C136 48 172 60 187 88 C165 76 141 79 123 96 C115 104 110 114 109 128 C107 147 115 163 133 179 C147 191 165 198 185 196 C170 209 150 216 126 214 C99 212 77 201 63 181 C48 160 44 135 50 111 C56 90 73 74 102 66 Z"
        fill="none" stroke="#6890b0" stroke-width="3.5" stroke-linecap="round" opacity="0.7"/>
  <circle cx="96" cy="111" r="14" fill="#24104d"/>

  <polygon points="195,106 229,123 195,140 161,123" fill="#79afe8"/>
  <polygon points="161,123 195,140 195,174 161,157" fill="#4e7fd0"/>
  <polygon points="195,140 229,123 229,157 195,174" fill="#325ead"/>
</svg>
