<?xml version="1.0" encoding="UTF-8"?>
<svg xmlns="http://www.w3.org/2000/svg" viewBox="0 0 512 512" width="512" height="512">
  <defs>
    <linearGradient id="gearGrad" x1="0.2" y1="0.15" x2="0.8" y2="0.85">
      <stop offset="0%" stop-color="#95caed"/>
      <stop offset="100%" stop-color="#72addd"/>
    </linearGradient>
    <mask id="mouthMask">
      <rect width="512" height="512" fill="white"/>
      <path d="M242 256 L398 172 A184 184 0 0 1 398 340 Z" fill="black"/>
    </mask>
  </defs>

  <g mask="url(#mouthMask)">
    <circle cx="226" cy="256" r="122" fill="url(#gearGrad)"/>
    <rect x="210" y="67" width="30" height="54" rx="3" fill="#95caed"/>
    <rect x="210" y="67" width="30" height="54" rx="3" fill="#95caed" transform="rotate(30 226 256)"/>
    <rect x="210" y="67" width="30" height="54" rx="3" fill="#95caed" transform="rotate(60 226 256)"/>
    <rect x="210" y="67" width="30" height="54" rx="3" fill="#95caed" transform="rotate(90 226 256)"/>
    <rect x="210" y="67" width="30" height="54" rx="3" fill="#95caed" transform="rotate(120 226 256)"/>
    <rect x="210" y="67" width="30" height="54" rx="3" fill="#95caed" transform="rotate(150 226 256)"/>
    <rect x="210" y="67" width="30" height="54" rx="3" fill="#95caed" transform="rotate(180 226 256)"/>
    <rect x="210" y="67" width="30" height="54" rx="3" fill="#95caed" transform="rotate(210 226 256)"/>
    <rect x="210" y="67" width="30" height="54" rx="3" fill="#95caed" transform="rotate(240 226 256)"/>
    <rect x="210" y="67" width="30" height="54" rx="3" fill="#95caed" transform="rotate(270 226 256)"/>
    <rect x="210" y="67" width="30" height="54" rx="3" fill="#95caed" transform="rotate(300 226 256)"/>
    <rect x="210" y="67" width="30" height="54" rx="3" fill="#95caed" transform="rotate(330 226 256)"/>
  </g>

  <path d="M194 131 C261 95 333 118 363 174 C318 150 270 156 235 188 C220 203 210 224 208 253 C204 292 220 326 256 358 C284 383 320 397 360 393 C330 420 288 435 241 431 C189 427 146 404 117 365 C89 325 80 276 93 229 C107 186 141 153 194 131 Z"
        fill="none" stroke="#6c93b2" stroke-width="7" stroke-linecap="round" opacity="0.72"/>
  <circle cx="183" cy="222" r="28" fill="#24104d"/>

  <polygon points="387,214 451,246 387,278 323,246" fill="#79afe8"/>
  <polygon points="323,246 387,278 387,342 323,310" fill="#4e7fd0"/>
  <polygon points="387,278 451,246 451,310 387,342" fill="#325ead"/>
</svg>
