<?xml version="1.0" encoding="UTF-8"?>
<svg xmlns="http://www.w3.org/2000/svg" viewBox="0 0 800 600" width="800" height="600">
  <defs>
    <linearGradient id="gearGrad" x1="0.2" y1="0.15" x2="0.8" y2="0.85">
      <stop offset="0%" stop-color="#95caed"/>
      <stop offset="100%" stop-color="#72addd"/>
    </linearGradient>
  </defs>

  <rect width="800" height="600" fill="#6d5a8a"/>

  <!-- Gear body: 9 teeth, 50/50 tooth/gap, radial rise+fall walls, mouth opens right -->
  <polygon fill="url(#gearGrad)" points="
    350,170
    394.5,202.3 409.9,213.5 406.7,217.6 403.2,221.4 399.5,225.0 395.6,228.3
    383.9,213.3 380.8,215.6 377.5,217.6 374.1,219.4
    370.6,221.0 377.7,238.6 372.9,240.4 367.9,241.8 362.9,242.9 357.7,243.6
    355.7,224.7 351.9,225.0 348.1,225.0 344.3,224.7
    340.4,224.2 337.1,242.9 332.1,241.8 327.1,240.4 322.3,238.6 317.6,236.5
    325.9,219.4 322.5,217.6 319.2,215.6 316.1,213.3
    313.2,210.9 300.5,225.0 296.8,221.4 293.3,217.6 290.1,213.5 287.2,209.2
    303.4,199.1 301.4,195.8 299.8,192.4 298.3,188.8
    297.1,185.2 278.9,190.4 277.6,185.4 276.7,180.3 276.2,175.2 276.0,170.0
    295.0,170.0 295.1,166.2 295.5,162.3 296.2,158.6
    297.1,154.8 278.9,149.6 280.5,144.7 282.4,139.9 284.7,135.3 287.2,130.8
    303.4,140.9 305.5,137.7 307.9,134.6 310.4,131.8
    313.2,129.1 300.5,115.0 304.4,111.7 308.6,108.7 313.0,105.9 317.6,103.5
    325.9,120.6 329.4,119.0 333.0,117.7 336.7,116.6
    340.4,115.8 337.2,97.1 342.3,96.4 347.4,96.1 352.6,96.1 357.7,96.4
    355.7,115.3 359.6,115.8 363.3,116.6 367.0,117.7
    370.6,119.0 377.7,101.4 382.4,103.5 387.0,105.9 391.4,108.7 395.6,111.7
    383.9,126.7 386.8,129.1 389.6,131.8 392.1,134.6
    394.5,137.7"/>

  <!-- Moon crescent: dark circle offset right creates pacman face -->
  <circle cx="370" cy="167" r="44" fill="#1a0a38"/>

  <!-- Eye in the crescent region (upper-left, outside the dark circle) -->
  <circle cx="330" cy="140" r="7" fill="#24104d"/>

  <!-- Cube centred on the horizontal mouth axis (y=170) -->
  <polygon points="430,153 447,161 430,169 413,161" fill="#79afe8"/>
  <polygon points="413,161 430,169 430,186 413,178" fill="#4e7fd0"/>
  <polygon points="430,169 447,161 447,178 430,186" fill="#325ead"/>

  <text x="400" y="305" text-anchor="middle"
        font-family="'Segoe UI', Arial, sans-serif"
        font-size="56" font-weight="400" fill="#f4efc6">LUNA2D</text>
  <text x="400" y="352" text-anchor="middle"
        font-family="'Segoe UI', Arial, sans-serif"
        font-size="24" fill="#ddd2cf">2D Game Engine</text>
  <text x="400" y="392" text-anchor="middle"
        font-family="'Segoe UI', Arial, sans-serif"
        font-size="20" fill="#d0c0d0">v0.5.0</text>
  <text x="400" y="560" text-anchor="middle"
        font-family="'Segoe UI', Arial, sans-serif"
        font-size="18" fill="#c3b1c5">Drop a game folder here to load it</text>
</svg>
