<?xml version="1.0" encoding="UTF-8"?>
<svg xmlns="http://www.w3.org/2000/svg" viewBox="0 0 128 128" width="128" height="128">
  <defs>
    <linearGradient id="bgGrad" x1="0" y1="0" x2="1" y2="1">
      <stop offset="0%" stop-color="#1c1c1f"/>
      <stop offset="100%" stop-color="#111114"/>
    </linearGradient>
    <linearGradient id="gearGrad" x1="0.2" y1="0.15" x2="0.8" y2="0.85">
      <stop offset="0%" stop-color="#92c7eb"/>
      <stop offset="100%" stop-color="#71abdc"/>
    </linearGradient>
    <mask id="mouthMask">
      <rect width="128" height="128" fill="white"/>
      <path d="M61 64 L101 42 A48 48 0 0 1 101 86 Z" fill="black"/>
    </mask>
  </defs>

  <rect x="4" y="4" width="120" height="120" rx="16" fill="url(#bgGrad)"/>

  <g mask="url(#mouthMask)">
    <circle cx="54" cy="64" r="31" fill="url(#gearGrad)"/>
    <rect x="50" y="13" width="8" height="16" rx="1" fill="#92c7eb"/>
    <rect x="50" y="13" width="8" height="16" rx="1" fill="#92c7eb" transform="rotate(30 54 64)"/>
    <rect x="50" y="13" width="8" height="16" rx="1" fill="#92c7eb" transform="rotate(60 54 64)"/>
    <rect x="50" y="13" width="8" height="16" rx="1" fill="#92c7eb" transform="rotate(90 54 64)"/>
    <rect x="50" y="13" width="8" height="16" rx="1" fill="#92c7eb" transform="rotate(120 54 64)"/>
    <rect x="50" y="13" width="8" height="16" rx="1" fill="#92c7eb" transform="rotate(150 54 64)"/>
    <rect x="50" y="13" width="8" height="16" rx="1" fill="#92c7eb" transform="rotate(180 54 64)"/>
    <rect x="50" y="13" width="8" height="16" rx="1" fill="#92c7eb" transform="rotate(210 54 64)"/>
    <rect x="50" y="13" width="8" height="16" rx="1" fill="#92c7eb" transform="rotate(240 54 64)"/>
    <rect x="50" y="13" width="8" height="16" rx="1" fill="#92c7eb" transform="rotate(270 54 64)"/>
    <rect x="50" y="13" width="8" height="16" rx="1" fill="#92c7eb" transform="rotate(300 54 64)"/>
    <rect x="50" y="13" width="8" height="16" rx="1" fill="#92c7eb" transform="rotate(330 54 64)"/>
  </g>

  <path d="M41 33 C58 24 76 29 84 42 C73 36 61 38 52 46 C48 50 46 56 45 63 C44 73 48 82 57 90 C64 96 73 100 83 99 C75 106 65 109 53 108 C40 107 29 102 22 92 C15 82 13 70 16 59 C20 48 28 39 41 33 Z"
        fill="none" stroke="#698fad" stroke-width="2.2" stroke-linecap="round" opacity="0.72"/>
  <circle cx="42" cy="55" r="6.5" fill="#24104d"/>

  <polygon points="89,56 107,65 89,74 71,65" fill="#79afe8"/>
  <polygon points="71,65 89,74 89,92 71,83" fill="#4e7fd0"/>
  <polygon points="89,74 107,65 107,83 89,92" fill="#325ead"/>
</svg>
