<?xml version="1.0" encoding="UTF-8"?>
<svg xmlns="http://www.w3.org/2000/svg" width="96" height="96" viewBox="0 0 96 96" shape-rendering="crispEdges">
<title>recon_skimmer</title><desc>Top-down pixel-art vehicle chassis on a transparent background: a narrow hovering reconnaissance craft with a pale cyan nose, dark blue underside, side sensor fins, and four small lift lights; minimal armor and a long clean silhouette suggest scouting speed.</desc>
<metadata data-authoring="individual" data-source="mods/core/races/modern_heavy/corpora.toml"/><circle cx="48" cy="48" r="46" fill="#141b25" opacity="1"/><circle cx="48" cy="48" r="43" fill="#465d72" opacity="1"/><polygon points="48,16 76,38 69,63 48,76 27,63 20,38" fill="#141b25"/><polygon points="48,22 69,40 63,58 48,68 33,58 27,40" fill="#7d99b2"/><polygon points="48,25 58,40 48,50 38,40" fill="#9ae8ff"/><circle cx="29" cy="61" r="5" fill="#e3b451" opacity="1"/><circle cx="67" cy="61" r="5" fill="#e3b451" opacity="1"/><line x1="25" y1="66" x2="17" y2="75" stroke="#9ae8ff" stroke-width="2" stroke-linecap="square"/><line x1="71" y1="66" x2="79" y2="75" stroke="#9ae8ff" stroke-width="2" stroke-linecap="square"/><rect x="39" y="76" width="18" height="6" fill="#141b25"/><rect x="43" y="77" width="10" height="2" fill="#e3b451"/><circle cx="19" cy="48" r="3" fill="#9ae8ff" opacity="1"/><circle cx="77" cy="48" r="3" fill="#9ae8ff" opacity="1"/><circle cx="47" cy="50" r="1" fill="#e3b451" opacity="1"/><circle cx="55" cy="49" r="2" fill="#e3b451" opacity="1"/></svg>
